Patient4_TMGait_0pt5_02_left_20_EMG.mot
version=1
nRows=16
nColumns=33
inDegrees=no
endheader
time	1LAddLong	2LGlutMax	3LGlutMed	4LIliopsoas	5LSemiMemb	6LBicFemLong	7LRecFem	8LVastMed	9LVastLat	10LGasMed	11LTibAnt	12lTibPost	13LPeroneusLong	14LSol	15LExtDigLong	16LFlexDigLong	17RAddLong	18RGlutMax	19RGlutMed	20RIliopsoas	21RSemiMemb	22RBicFemLong	23RRecFem	24RVastMed	25RVastLat	26RGasMed	27RTibAnt	28RTibPost	29RPeroneusLong	30RSol	31RExtDigLong	32RFlexDigLong
25.775	-0.011902	0.70404	0.098877	0.024872	-0.11429	0.027771	0.024414	-0.00412	-0.036163	-0.036774	0.018158	0.046997	0.51849	-0.041046	-0.062561	0.038452	0.042267	0.13458	-0.31708	-0.088654	-0.024109	-0.043945	0.18982	0.02121	0.052032	-0.024567	0.072937	-0.065918	0.42572	0.18997	-0.005341	-0.014191
25.776	0.004272	0.67673	0.075989	0.037384	-0.025787	-0.030212	-0.00824	0.000763	-0.028229	0.035706	0.007019	0.046997	0.14099	-0.20111	-0.014038	0.042114	0.029144	0.15091	-0.30243	-0.082703	-0.021057	-0.041199	0.21316	-0.035858	0.066528	-0.018311	0.093689	-0.046387	-0.14572	0.20508	0.001831	-0.013428
25.777	0.00824	0.63065	0.052032	0.008698	0.020752	0.043488	-0.048065	0.006866	0.000153	0.13412	-0.00824	0.080719	-0.093231	-0.071716	0.009308	0.037079	0.030823	0.21927	-0.24582	0.02655	-0.026855	-0.062408	0.21606	-0.053864	0.049133	-0.002289	0.095367	-0.01236	-0.74982	0.084229	-0.005951	-0.013123
25.778	0.015411	0.59494	0.023499	-0.002441	0.034637	-0.028992	-0.10315	0.010223	-0.004578	0.15549	0.008392	0.049591	-0.32577	0.1828	0.018616	-0.011139	0.019379	0.24963	-0.25299	0.016174	-0.02533	-0.057678	0.2124	-0.046692	0.05188	0.00946	0.093994	-0.028534	-0.80734	-0.018005	-0.006561	-0.001373
25.779	0.00946	0.55908	0.017395	0.016327	0.077515	-0.13473	-0.12817	0.005035	-0.023651	0.1741	0.020447	0.078278	0.27176	0.40314	0.10941	0.052032	0.013275	0.26306	-0.24323	-0.005493	-0.022736	-0.066071	0.16876	-0.075989	0.048218	0.022888	0.05188	-0.003815	0.15823	-0.19302	-0.001831	-0.000458
25.78	0.014496	0.51437	0.093842	0.019379	0.097198	-0.39871	-0.17181	0.003815	-0.013123	0.14969	0.034027	0.11459	0.46204	0.44296	0.10101	0.090637	0.011444	0.2533	-0.27054	0.004425	-0.023651	-0.063782	0.15656	-0.06546	0.034027	0.026245	0.026703	0.057526	1.5076	-0.32272	-0.00061	0.006866
25.781	-0.00061	0.457	0.05661	0.018158	0.063019	-0.15381	-0.22247	0.00824	-0.03418	0.1741	0.024872	0.089874	0.81696	0.17197	-0.093079	-0.11383	0.04364	0.26962	-0.27695	0.028839	-0.023804	-0.047455	0.17303	-0.09079	0.024109	0.011749	0.021057	-0.24323	-0.17029	-0.35523	0.007324	0.002899
25.782	-0.002747	0.30823	0.005341	0.020752	0.041962	-0.041656	-0.233	0.005341	-0.006256	-0.079041	0.000916	-0.047607	-0.12329	-0.18005	-0.17685	0.14664	0.024719	0.30075	-0.23895	0.028687	-0.036621	-0.046997	0.18616	-0.087738	-0.007782	-0.000916	0.060577	-0.11139	-1.8704	-0.4277	-0.007935	-0.013123
25.783	0.001526	0.2063	-0.028839	-0.000305	0.022888	-0.16373	-0.21133	0.002289	0.029755	0.16739	0.016937	0.021515	-0.46722	-0.064545	-0.12451	0.26474	0.015106	0.29205	-0.17685	0.029755	-0.028076	-0.03479	0.14847	-0.065308	0.002441	-0.010834	0.073242	-0.48706	-1.924	-0.50552	-0.011749	-0.012054
25.784	-0.012665	0.15518	0.012054	0.003967	0.019989	0.088654	-0.074768	0.001373	-0.002594	0.063019	0.038452	-0.018768	-0.90988	-0.19531	-0.09491	-0.033417	0.018158	0.37277	-0.1712	0.000763	-0.03418	-0.035553	0.12375	-0.06012	0.004883	-0.034027	-0.000916	0.25864	-1.098	-0.50552	-0.005798	-0.024109
25.785	-0.019836	0.1033	-0.036774	0.005646	-0.027466	0.23346	-0.041809	0.00824	0.053864	0.027466	-0.006256	0.02243	-0.40497	-0.34271	-0.028992	-0.14542	-0.010071	0.39291	-0.15533	-0.058289	-0.039673	-0.02594	0.10773	-0.040894	0.026245	-0.0383	-0.036163	0.15457	0.67673	-0.098724	-0.007782	-0.011902
25.786	-0.013428	0.096893	-0.10071	0.015106	-0.097351	0.36148	-0.09201	0.010529	0.10757	0.072937	-0.02182	0.031586	0.016174	-0.52338	0.000763	-0.043488	0.008392	0.36453	-0.11993	-0.062714	-0.032959	-0.020752	0.084686	-0.03067	0.020905	-0.035706	-0.035858	0.22354	1.2735	0.74631	-0.002747	-0.021667
25.787	-0.010223	0.11108	-0.15549	0.018921	-0.14191	0.36545	-0.095673	0.001984	0.14603	-0.090027	-0.020447	0.029907	0.085297	-0.41245	0.034332	0.011597	0.024719	0.37781	-0.12573	-0.069122	-0.029755	-0.01358	0.054321	-0.046997	0.009918	-0.025024	0.038147	-0.3186	0.55191	0.74463	-0.002136	-0.01358
25.788	0.00412	0.057983	-0.13229	0.03067	-0.13016	0.33661	-0.11719	-0.002747	0.074768	-0.16388	-0.028381	0.02243	-0.050659	-0.17563	0.020142	0.016479	0.037079	0.41794	-0.06073	-0.027161	-0.034485	0.006866	0.083466	-0.020447	0.012054	-0.010681	0.080414	0.19455	0.28931	0.54138	0.000458	-0.007629
25.789	0.020294	0.016937	-0.039063	0.036774	-0.03952	0.29327	-0.12039	-0.004425	0.11932	-0.20142	-0.020447	0.039978	0.18951	-0.00412	0.055237	0.011597	0.084534	0.44891	-0.029907	0.059052	-0.037842	-0.010986	0.11414	-0.006561	0.006409	0.007629	0.074768	0.003967	0.52277	0.23285	0.000305	-0.013123
25.79	0.033112	0.030518	0.08728	0.007629	0.077362	-0.036163	-0.14908	-0.004425	0.14679	-0.16953	-0.011444	0.030212	0.18875	0.068512	0.11093	0.004425	0.098419	0.41382	-0.11307	0.10605	-0.019531	-0.009766	0.078278	0.018768	0.007629	0.031586	0.018768	0.024567	0.12817	0.071869	0.006104	-0.003357
